<svg width="702" height="474" viewBox="0 0 702 474" fill="none" xmlns="http://www.w3.org/2000/svg">
<rect width="702" height="474" fill="#E5E5E5"/>
<rect x="-1716" y="-1146" width="2843" height="2525" rx="25" fill="white"/>
<g filter="url(#filter0_d_1027_5434)">
<mask id="mask0_1027_5434" style="mask-type:alpha" maskUnits="userSpaceOnUse" x="0" y="14" width="684" height="438">
<rect x="0.595703" y="14.0442" width="683.29" height="437" rx="30" fill="#09797A"/>
</mask>
<g mask="url(#mask0_1027_5434)">
<g opacity="0.6">
<g opacity="0.5">
<path d="M348.777 19.5531C464.14 51.0599 532.641 171.95 501.718 289.603C470.796 407.255 352.18 477.042 236.817 445.535C121.455 414.028 52.9541 293.138 83.8765 175.486C114.799 57.8329 233.414 -11.9537 348.777 19.5531Z" stroke="url(#paint0_linear_1027_5434)" stroke-width="2.7772"/>
<path d="M356.133 85.8827C437.82 108.192 486.334 193.798 464.434 277.122C442.535 360.447 358.533 409.861 276.846 387.551C195.159 365.241 146.644 279.636 168.544 196.311C190.444 112.987 274.446 63.5731 356.133 85.8827Z" stroke="url(#paint1_linear_1027_5434)" stroke-width="2.7772"/>
<path d="M342.843 59.2812C437.304 85.0793 493.399 184.069 468.077 280.414C442.755 376.76 345.624 433.901 251.163 408.103C156.702 382.305 100.607 283.316 125.929 186.97C151.251 90.6244 248.382 33.483 342.843 59.2812Z" stroke="url(#paint2_linear_1027_5434)" stroke-width="2.7772"/>
<path d="M240.37 350.248H225.062C221.332 346.333 219.252 341.132 219.254 335.724V119.2C219.252 113.792 221.332 108.591 225.062 104.677H240.37C242.12 104.677 243.798 103.981 245.036 102.743C246.273 101.505 246.968 99.826 246.968 98.0752C246.968 96.3244 246.273 94.6453 245.036 93.4074C243.798 92.1694 242.12 91.4739 240.37 91.4739H213.975C206.627 91.4821 199.583 94.4059 194.387 99.6037C189.191 104.801 186.269 111.849 186.261 119.2V335.72C186.269 343.071 189.192 350.118 194.387 355.316C199.583 360.514 206.627 363.437 213.975 363.446H240.37C242.12 363.446 243.798 362.75 245.036 361.512C246.273 360.274 246.968 358.595 246.968 356.845C246.968 355.094 246.273 353.415 245.036 352.177C243.798 350.939 242.12 350.243 240.37 350.243V350.248Z" fill="url(#paint3_linear_1027_5434)"/>
<path d="M588.773 98.0754H240.368C228.707 98.0754 219.253 107.533 219.253 119.2V335.725C219.253 347.391 228.707 356.849 240.368 356.849H588.773C600.435 356.849 609.888 347.391 609.888 335.725V119.2C609.888 107.533 600.435 98.0754 588.773 98.0754Z" fill="url(#paint4_linear_1027_5434)"/>
<path d="M588.771 363.45H240.367C233.02 363.442 225.975 360.518 220.78 355.32C215.584 350.123 212.662 343.075 212.653 335.724V119.2C212.661 111.849 215.584 104.801 220.779 99.6034C225.975 94.4056 233.02 91.4819 240.367 91.4739H588.771C596.119 91.4821 603.163 94.4059 608.359 99.6037C613.554 104.801 616.477 111.849 616.485 119.2V335.72C616.478 343.072 613.555 350.12 608.36 355.319C603.164 360.517 596.119 363.442 588.771 363.45ZM240.367 104.677C236.518 104.681 232.828 106.212 230.107 108.935C227.385 111.658 225.855 115.349 225.85 119.2V335.72C225.855 339.571 227.386 343.262 230.107 345.985C232.829 348.707 236.519 350.239 240.367 350.243H588.771C592.62 350.239 596.31 348.707 599.031 345.985C601.753 343.262 603.284 339.571 603.288 335.72V119.2C603.284 115.349 601.753 111.658 599.031 108.935C596.31 106.212 592.62 104.681 588.771 104.677H240.367Z" fill="#F7FAFC"/>
<path d="M356.009 362.79H213.975C213.975 368.392 216.199 373.765 220.159 377.727C224.119 381.689 229.49 383.914 235.09 383.914H356.009C357.403 383.927 358.786 383.663 360.078 383.138C361.37 382.613 362.546 381.837 363.536 380.855C364.527 379.873 365.313 378.704 365.85 377.416C366.386 376.128 366.663 374.747 366.663 373.352C366.663 371.957 366.386 370.575 365.85 369.288C365.313 368 364.527 366.831 363.536 365.849C362.546 364.867 361.37 364.091 360.078 363.566C358.786 363.041 357.403 362.777 356.009 362.79Z" fill="url(#paint5_linear_1027_5434)"/>
<path d="M673.232 362.79H356.006C357.4 362.777 358.784 363.041 360.076 363.566C361.368 364.091 362.543 364.867 363.533 365.849C364.524 366.831 365.31 368 365.847 369.288C366.383 370.575 366.66 371.957 366.66 373.352C366.66 374.747 366.383 376.128 365.847 377.416C365.31 378.704 364.524 379.873 363.533 380.855C362.543 381.837 361.368 382.613 360.076 383.138C358.784 383.663 357.4 383.927 356.006 383.914H673.232C674.627 383.927 676.01 383.663 677.302 383.138C678.594 382.613 679.769 381.837 680.76 380.855C681.75 379.873 682.537 378.704 683.073 377.416C683.61 376.128 683.886 374.747 683.886 373.352C683.886 371.957 683.61 370.575 683.073 369.288C682.537 368 681.75 366.831 680.76 365.849C679.769 364.867 678.594 364.091 677.302 363.566C676.01 363.041 674.627 362.777 673.232 362.79Z" fill="url(#paint6_linear_1027_5434)"/>
<path d="M579.534 117.879H249.605C243.775 117.879 239.048 122.607 239.048 128.44V216.569C239.048 222.402 243.775 227.131 249.605 227.131H579.534C585.365 227.131 590.091 222.402 590.091 216.569V128.44C590.091 122.607 585.365 117.879 579.534 117.879Z" fill="#E0F0EE"/>
<path d="M401.372 240.336H249.609C248.223 240.335 246.849 240.608 245.568 241.138C244.287 241.669 243.122 242.447 242.142 243.428C241.161 244.408 240.383 245.573 239.852 246.855C239.321 248.136 239.048 249.51 239.048 250.897V350.248H411.93V250.897C411.93 249.51 411.657 248.137 411.127 246.855C410.596 245.574 409.818 244.41 408.838 243.429C407.857 242.448 406.693 241.67 405.412 241.139C404.132 240.609 402.759 240.336 401.372 240.336Z" fill="#E0F0EE"/>
<path d="M579.53 240.336H434.362C432.975 240.336 431.602 240.609 430.322 241.139C429.041 241.67 427.877 242.448 426.896 243.429C425.916 244.41 425.138 245.574 424.607 246.855C424.077 248.137 423.804 249.51 423.804 250.897V350.248H590.088V250.897C590.088 248.096 588.975 245.41 586.995 243.429C585.016 241.448 582.33 240.336 579.53 240.336Z" fill="#E0F0EE"/>
<path d="M392.795 280.279H343.966C343.254 280.25 342.545 280.365 341.879 280.618C341.214 280.87 340.606 281.255 340.092 281.748C339.579 282.241 339.171 282.833 338.892 283.488C338.613 284.143 338.469 284.848 338.469 285.56C338.469 286.272 338.613 286.977 338.892 287.632C339.171 288.287 339.579 288.879 340.092 289.372C340.606 289.865 341.214 290.25 341.879 290.502C342.545 290.754 343.254 290.87 343.966 290.841H392.795C394.195 290.841 395.538 290.284 396.528 289.294C397.518 288.304 398.074 286.96 398.074 285.56C398.074 284.159 397.518 282.816 396.528 281.826C395.538 280.835 394.195 280.279 392.795 280.279Z" fill="#F7FAFC"/>
<path d="M372.997 299.742H343.964C343.254 299.715 342.546 299.831 341.881 300.084C341.217 300.337 340.61 300.722 340.098 301.215C339.586 301.708 339.179 302.3 338.9 302.954C338.622 303.608 338.479 304.312 338.479 305.023C338.479 305.734 338.622 306.438 338.9 307.093C339.179 307.747 339.586 308.338 340.098 308.832C340.61 309.325 341.217 309.709 341.881 309.962C342.546 310.216 343.254 310.332 343.964 310.305H372.997C373.708 310.332 374.416 310.216 375.081 309.962C375.745 309.709 376.351 309.325 376.863 308.832C377.376 308.338 377.783 307.747 378.061 307.093C378.34 306.438 378.483 305.734 378.483 305.023C378.483 304.312 378.34 303.608 378.061 302.954C377.783 302.3 377.376 301.708 376.863 301.215C376.351 300.722 375.745 300.337 375.081 300.084C374.416 299.831 373.708 299.715 372.997 299.742Z" fill="url(#paint7_linear_1027_5434)"/>
<path d="M289.858 258.323C282.549 258.323 275.405 260.491 269.328 264.553C263.251 268.615 258.515 274.389 255.718 281.144C252.921 287.899 252.19 295.332 253.615 302.503C255.041 309.674 258.56 316.261 263.728 321.431C268.896 326.601 275.48 330.122 282.649 331.548C289.817 332.975 297.246 332.243 303.999 329.445C310.751 326.647 316.522 321.909 320.582 315.829C324.643 309.75 326.81 302.602 326.81 295.291C326.81 290.436 325.854 285.629 323.997 281.144C322.14 276.659 319.418 272.583 315.987 269.151C312.555 265.718 308.482 262.995 303.999 261.137C299.515 259.279 294.71 258.323 289.858 258.323ZM289.858 313.774C286.203 313.774 282.631 312.69 279.593 310.659C276.555 308.628 274.187 305.741 272.789 302.364C271.391 298.986 271.025 295.27 271.738 291.684C272.451 288.099 274.211 284.806 276.794 282.221C279.378 279.636 282.67 277.876 286.254 277.162C289.838 276.449 293.553 276.815 296.929 278.214C300.305 279.613 303.19 281.983 305.22 285.022C307.251 288.062 308.334 291.635 308.334 295.291C308.334 297.718 307.856 300.122 306.928 302.364C305.999 304.607 304.638 306.645 302.922 308.361C301.207 310.077 299.17 311.439 296.928 312.368C294.686 313.297 292.284 313.775 289.858 313.774Z" fill="url(#paint8_linear_1027_5434)"/>
<path d="M289.857 258.323V276.807C294.758 276.807 299.457 278.755 302.922 282.221C306.387 285.687 308.334 290.389 308.334 295.291H326.81C326.81 290.436 325.854 285.629 323.997 281.144C322.14 276.659 319.418 272.583 315.987 269.151C312.555 265.718 308.482 262.995 303.998 261.137C299.515 259.279 294.71 258.323 289.857 258.323Z" fill="#F7FAFC"/>
<path d="M271.381 295.291C271.381 290.389 273.328 285.687 276.793 282.221C280.258 278.755 284.957 276.807 289.857 276.807V258.323C283.098 258.322 276.468 260.175 270.689 263.682C264.91 267.189 260.204 272.214 257.082 278.211C253.96 284.209 252.543 290.948 252.984 297.695C253.425 304.442 255.708 310.939 259.585 316.479L274.726 305.88C272.547 302.78 271.378 299.081 271.381 295.291Z" fill="url(#paint9_linear_1027_5434)"/>
<path d="M564.353 263.027H449.537C448.172 263.08 446.88 263.659 445.933 264.644C444.986 265.628 444.457 266.942 444.457 268.308C444.457 269.675 444.986 270.988 445.933 271.973C446.88 272.958 448.172 273.537 449.537 273.59H564.353C565.718 273.537 567.009 272.958 567.956 271.973C568.904 270.988 569.433 269.675 569.433 268.308C569.433 266.942 568.904 265.628 567.956 264.644C567.009 263.659 565.718 263.08 564.353 263.027Z" fill="#F7FAFC"/>
<path d="M537.959 282.164H449.534C448.169 282.216 446.878 282.796 445.93 283.78C444.983 284.765 444.454 286.079 444.454 287.445C444.454 288.812 444.983 290.125 445.93 291.11C446.878 292.095 448.169 292.674 449.534 292.726H537.959C539.324 292.674 540.616 292.095 541.563 291.11C542.51 290.125 543.039 288.812 543.039 287.445C543.039 286.079 542.51 284.765 541.563 283.78C540.616 282.796 539.324 282.216 537.959 282.164Z" fill="url(#paint10_linear_1027_5434)"/>
<path d="M495.728 311.71H461.416C460.705 311.683 459.997 311.799 459.332 312.052C458.668 312.305 458.062 312.69 457.549 313.183C457.037 313.676 456.63 314.268 456.351 314.922C456.073 315.577 455.93 316.28 455.93 316.992C455.93 317.703 456.073 318.406 456.351 319.061C456.63 319.715 457.037 320.307 457.549 320.8C458.062 321.293 458.668 321.678 459.332 321.931C459.997 322.184 460.705 322.3 461.416 322.273H495.728C497.093 322.22 498.385 321.641 499.332 320.656C500.279 319.672 500.808 318.358 500.808 316.992C500.808 315.625 500.279 314.311 499.332 313.327C498.385 312.342 497.093 311.763 495.728 311.71Z" fill="url(#paint11_linear_1027_5434)"/>
<path d="M495.729 330.195H449.538C448.138 330.195 446.796 330.751 445.806 331.741C444.816 332.732 444.26 334.075 444.26 335.475C444.26 336.876 444.816 338.219 445.806 339.21C446.796 340.2 448.138 340.756 449.538 340.756H495.729C497.092 340.701 498.381 340.121 499.326 339.136C500.27 338.152 500.798 336.84 500.798 335.475C500.798 334.111 500.27 332.799 499.326 331.815C498.381 330.83 497.092 330.25 495.729 330.195Z" fill="url(#paint12_linear_1027_5434)"/>
<path d="M564.353 311.711H518.162C516.797 311.763 515.506 312.343 514.558 313.327C513.611 314.312 513.082 315.625 513.082 316.992C513.082 318.359 513.611 319.672 514.558 320.657C515.506 321.641 516.797 322.221 518.162 322.273H564.353C565.718 322.221 567.009 321.641 567.956 320.657C568.904 319.672 569.433 318.359 569.433 316.992C569.433 315.625 568.904 314.312 567.956 313.327C567.009 312.343 565.718 311.763 564.353 311.711Z" fill="url(#paint13_linear_1027_5434)"/>
<path d="M564.353 330.195H518.162C516.762 330.195 515.42 330.751 514.43 331.741C513.44 332.732 512.884 334.075 512.884 335.475C512.884 336.876 513.44 338.219 514.43 339.21C515.42 340.2 516.762 340.756 518.162 340.756H564.353C565.753 340.756 567.096 340.2 568.086 339.21C569.075 338.219 569.632 336.876 569.632 335.475C569.632 334.075 569.075 332.732 568.086 331.741C567.096 330.751 565.753 330.195 564.353 330.195Z" fill="url(#paint14_linear_1027_5434)"/>
<path d="M284.96 187.03H274.402C273.002 187.031 271.66 187.587 270.67 188.578C269.681 189.568 269.124 190.91 269.123 192.31V210.794H290.239V192.31C290.237 190.91 289.681 189.568 288.691 188.578C287.701 187.587 286.359 187.031 284.96 187.03Z" fill="url(#paint15_linear_1027_5434)"/>
<path d="M323.5 160.623H312.942C311.542 160.624 310.2 161.181 309.21 162.171C308.221 163.161 307.664 164.504 307.663 165.904V210.793H328.779V165.9C328.776 164.5 328.219 163.159 327.23 162.17C326.24 161.181 324.899 160.624 323.5 160.623Z" fill="#F7FAFC"/>
<path d="M362.039 147.421H351.481C350.08 147.421 348.736 147.977 347.746 148.969C346.755 149.96 346.198 151.304 346.198 152.706V210.797H367.314V152.702C367.313 151.303 366.757 149.961 365.768 148.97C364.779 147.98 363.438 147.423 362.039 147.421Z" fill="url(#paint16_linear_1027_5434)"/>
<path d="M400.575 147.421H390.016C388.615 147.421 387.271 147.978 386.281 148.969C385.29 149.96 384.733 151.305 384.733 152.706V210.798H405.849V152.703C405.848 151.303 405.292 149.961 404.303 148.971C403.315 147.981 401.974 147.423 400.575 147.421Z" fill="#F7FAFC"/>
<path d="M439.116 154.022H428.557C427.864 154.022 427.177 154.159 426.536 154.425C425.895 154.69 425.312 155.079 424.822 155.57C424.331 156.061 423.942 156.644 423.677 157.285C423.411 157.926 423.274 158.613 423.274 159.307V210.798H444.39V159.304C444.389 157.904 443.833 156.562 442.844 155.572C441.856 154.582 440.515 154.025 439.116 154.022Z" fill="url(#paint17_linear_1027_5434)"/>
<path d="M477.655 173.826H467.096C465.696 173.826 464.353 174.383 463.362 175.373C462.372 176.363 461.815 177.706 461.813 179.107V210.793H482.929V179.107C482.928 177.708 482.372 176.366 481.383 175.376C480.394 174.386 479.053 173.829 477.655 173.826Z" fill="#F7FAFC"/>
<path d="M516.194 147.421H505.636C504.234 147.421 502.891 147.978 501.9 148.969C500.909 149.96 500.353 151.305 500.353 152.706V210.798H521.468V152.703C521.467 151.303 520.911 149.961 519.922 148.971C518.934 147.981 517.593 147.423 516.194 147.421Z" fill="url(#paint18_linear_1027_5434)"/>
<path d="M554.734 134.219H544.176C542.774 134.219 541.431 134.775 540.44 135.767C539.449 136.758 538.893 138.102 538.893 139.504V210.798H560.008V139.5C560.007 138.101 559.451 136.759 558.463 135.768C557.474 134.778 556.133 134.221 554.734 134.219Z" fill="#F7FAFC"/>
</g>
</g>
</g>
</g>
<defs>
<filter id="filter0_d_1027_5434" x="-17.4043" y="0.0441895" width="719.29" height="473" filterUnits="userSpaceOnUse" color-interpolation-filters="sRGB">
<feFlood flood-opacity="0" result="BackgroundImageFix"/>
<feColorMatrix in="SourceAlpha" type="matrix" values="0 0 0 0 0 0 0 0 0 0 0 0 0 0 0 0 0 0 127 0" result="hardAlpha"/>
<feOffset dy="4"/>
<feGaussianBlur stdDeviation="9"/>
<feComposite in2="hardAlpha" operator="out"/>
<feColorMatrix type="matrix" values="0 0 0 0 0 0 0 0 0 0 0 0 0 0 0 0 0 0 0.25 0"/>
<feBlend mode="normal" in2="BackgroundImageFix" result="effect1_dropShadow_1027_5434"/>
<feBlend mode="normal" in="SourceGraphic" in2="effect1_dropShadow_1027_5434" result="shape"/>
</filter>
<linearGradient id="paint0_linear_1027_5434" x1="-158.474" y1="109.297" x2="324.766" y2="236.306" gradientUnits="userSpaceOnUse">
<stop stop-color="#8DCEA1"/>
<stop offset="1" stop-color="#B7EAC7" stop-opacity="0.06"/>
</linearGradient>
<linearGradient id="paint1_linear_1027_5434" x1="-3.91333" y1="149.212" x2="339.187" y2="239.388" gradientUnits="userSpaceOnUse">
<stop stop-color="#8DCEA1"/>
<stop offset="1" stop-color="#B7EAC7" stop-opacity="0.06"/>
</linearGradient>
<linearGradient id="paint2_linear_1027_5434" x1="-73.0394" y1="132.63" x2="323.218" y2="236.777" gradientUnits="userSpaceOnUse">
<stop stop-color="#8DCEA1"/>
<stop offset="1" stop-color="#B7EAC7" stop-opacity="0.06"/>
</linearGradient>
<linearGradient id="paint3_linear_1027_5434" x1="216.614" y1="91.4739" x2="216.614" y2="363.446" gradientUnits="userSpaceOnUse">
<stop stop-color="#6CDDDE"/>
<stop offset="1" stop-color="#09797A"/>
</linearGradient>
<linearGradient id="paint4_linear_1027_5434" x1="414.571" y1="98.0754" x2="414.571" y2="356.849" gradientUnits="userSpaceOnUse">
<stop stop-color="#3ED9C4"/>
<stop offset="0.583333" stop-color="#3ED9C4" stop-opacity="0.619792"/>
<stop offset="1" stop-color="#F7FAFC"/>
</linearGradient>
<linearGradient id="paint5_linear_1027_5434" x1="290.319" y1="362.789" x2="290.319" y2="383.915" gradientUnits="userSpaceOnUse">
<stop stop-color="#6CDDDE"/>
<stop offset="1" stop-color="#09797A"/>
</linearGradient>
<linearGradient id="paint6_linear_1027_5434" x1="519.946" y1="362.789" x2="519.946" y2="383.915" gradientUnits="userSpaceOnUse">
<stop stop-color="#6CDDDE"/>
<stop offset="1" stop-color="#09797A"/>
</linearGradient>
<linearGradient id="paint7_linear_1027_5434" x1="358.481" y1="299.738" x2="358.481" y2="310.308" gradientUnits="userSpaceOnUse">
<stop stop-color="#3ED9C4"/>
<stop offset="0.583333" stop-color="#3ED9C4" stop-opacity="0.619792"/>
<stop offset="1" stop-color="#F7FAFC"/>
</linearGradient>
<linearGradient id="paint8_linear_1027_5434" x1="289.858" y1="258.323" x2="289.858" y2="332.259" gradientUnits="userSpaceOnUse">
<stop stop-color="#6CDDDE"/>
<stop offset="1" stop-color="#09797A"/>
</linearGradient>
<linearGradient id="paint9_linear_1027_5434" x1="271.381" y1="258.323" x2="282.12" y2="334.673" gradientUnits="userSpaceOnUse">
<stop stop-color="#3ED9C4"/>
<stop offset="0.583333" stop-color="#29FFE2" stop-opacity="0.619792"/>
<stop offset="1" stop-color="#F7FAFC"/>
</linearGradient>
<linearGradient id="paint10_linear_1027_5434" x1="493.747" y1="282.164" x2="493.747" y2="292.726" gradientUnits="userSpaceOnUse">
<stop stop-color="#3ED9C4"/>
<stop offset="0.583333" stop-color="#3ED9C4" stop-opacity="0.619792"/>
<stop offset="1" stop-color="#F7FAFC"/>
</linearGradient>
<linearGradient id="paint11_linear_1027_5434" x1="478.369" y1="311.706" x2="478.369" y2="322.277" gradientUnits="userSpaceOnUse">
<stop stop-color="#3ED9C4"/>
<stop offset="0.583333" stop-color="#3ED9C4" stop-opacity="0.619792"/>
<stop offset="1" stop-color="#F7FAFC"/>
</linearGradient>
<linearGradient id="paint12_linear_1027_5434" x1="472.529" y1="330.195" x2="472.529" y2="340.756" gradientUnits="userSpaceOnUse">
<stop stop-color="#3ED9C4"/>
<stop offset="0.583333" stop-color="#3ED9C4" stop-opacity="0.619792"/>
<stop offset="1" stop-color="#F7FAFC"/>
</linearGradient>
<linearGradient id="paint13_linear_1027_5434" x1="541.257" y1="311.711" x2="541.257" y2="322.273" gradientUnits="userSpaceOnUse">
<stop stop-color="#3ED9C4"/>
<stop offset="0.583333" stop-color="#3ED9C4" stop-opacity="0.619792"/>
<stop offset="1" stop-color="#F7FAFC"/>
</linearGradient>
<linearGradient id="paint14_linear_1027_5434" x1="541.258" y1="330.195" x2="541.258" y2="340.756" gradientUnits="userSpaceOnUse">
<stop stop-color="#3ED9C4"/>
<stop offset="0.583333" stop-color="#3ED9C4" stop-opacity="0.619792"/>
<stop offset="1" stop-color="#F7FAFC"/>
</linearGradient>
<linearGradient id="paint15_linear_1027_5434" x1="279.681" y1="187.03" x2="279.681" y2="210.794" gradientUnits="userSpaceOnUse">
<stop stop-color="#3ED9C4"/>
<stop offset="0.583333" stop-color="#3ED9C4" stop-opacity="0.619792"/>
<stop offset="1" stop-color="#F7FAFC"/>
</linearGradient>
<linearGradient id="paint16_linear_1027_5434" x1="356.756" y1="147.421" x2="356.756" y2="210.797" gradientUnits="userSpaceOnUse">
<stop stop-color="#3ED9C4"/>
<stop offset="0.583333" stop-color="#3ED9C4" stop-opacity="0.619792"/>
<stop offset="1" stop-color="#F7FAFC"/>
</linearGradient>
<linearGradient id="paint17_linear_1027_5434" x1="433.832" y1="154.022" x2="433.832" y2="210.798" gradientUnits="userSpaceOnUse">
<stop stop-color="#3ED9C4"/>
<stop offset="0.583333" stop-color="#3ED9C4" stop-opacity="0.619792"/>
<stop offset="1" stop-color="#F7FAFC"/>
</linearGradient>
<linearGradient id="paint18_linear_1027_5434" x1="510.91" y1="147.421" x2="510.91" y2="210.798" gradientUnits="userSpaceOnUse">
<stop stop-color="#3ED9C4"/>
<stop offset="0.583333" stop-color="#3ED9C4" stop-opacity="0.619792"/>
<stop offset="1" stop-color="#F7FAFC"/>
</linearGradient>
</defs>
</svg>
